<svg viewBox="0 0 40 41" xmlns="http://www.w3.org/2000/svg" fill-rule="evenodd" clip-rule="evenodd" stroke-linejoin="round" stroke-miterlimit="1.414"><path d="M31.086 18.537a2.635 2.635 0 01-1.432.2c-1.2-.2-3-2.866-2.729-4.305.191-1.02 2-1.007 2-1.007a9.185 9.185 0 00-4-3.416l.708-2.729-.194-.125-1.412 2.493a11.365 11.365 0 00-3.982-.593c-.769.014-1.534.108-2.284.28L15.196 6.13l-.2.2 1.487 3.38a10.119 10.119 0 00-6.461 9.566c8.087-1.53 19.057 1.082 21.242 2.3a9.228 9.228 0 00-.178-3.038zm-10.772-.575c-2.962-.346-3.308-2.245-3.291-3.2.049-2.367 1.448-2.61 2.962-2.614 1.9 0 4.509.477 5.2 1.857.727 1.465-2.613 4.223-4.871 3.957z" fill="#00d49f" fill-rule="nonzero"/><path d="M20 40.002c-10.972 0-20-9.029-20-20 0-10.972 9.028-20 20-20s20 9.027 20 20c0 10.972-9.028 20-20 20zm-8.538-3.97c.327.185.663.352 1.007.5l.072.037.165.072.161.069.142.059.079-.017A48.318 48.318 0 0119 35.877l.4-.032c1.348-.11 2.7-.166 4.052-.172h.4c.922 0 1.846.026 2.745.07.29 0 .583.03.875.048.425.027.852.06 1.28.1h.063l.056-.023.066-.032.392-.227c.142-.083.283-.172.425-.264.142-.091.313-.2.464-.306l.109-.072.576-.4-.7-.072a62.739 62.739 0 00-6.175-.346h-.4c-1.362 0-2.723.053-4.081.16-.388.027-.78.06-1.168.1l-.293.034a49.371 49.371 0 00-6.254 1.047 4.647 4.647 0 00-.866-3l1.84-.51.1-.05a3.042 3.042 0 001.129-1.111 5.233 5.233 0 00.6-3.48 6.453 6.453 0 00-1.116-3.155 2.636 2.636 0 00-2.077-1.133 2.544 2.544 0 00-.247 0l-.4.057v-.139a31.529 31.529 0 017.241-.727c4.377-.03 8.731.63 12.902 1.96a74.81 74.81 0 011.112 8.823l.036.53.388-.364c.286-.27.566-.55.833-.84l.076-.081v-.11a75.536 75.536 0 00-.658-5.75c.96.384 1.868.887 2.7 1.5.148.11.29.218.421.33l.244.194.138-.277a17.95 17.95 0 001.951-8.155v-.005c0-9.966-8.2-18.165-18.165-18.165s-18.165 8.2-18.165 18.165c0 2.707.605 5.38 1.771 7.823l.138.29.25-.2a15.472 15.472 0 017.359-3.41h.089c.658 0 1.534.793 1.81 3.027.276 2.235-.8 3-.964 3.084l-2.449.681a4.637 4.637 0 00-1.616-.945H8.2l-.477.04.3.372c2.7 3.29 2.439 4.43 2.426 4.475l-.049.184.161.1c.276.169.527.313.77.444h.026l.069.033.036.038z" fill="#00d49f" fill-rule="nonzero"/></svg>